<svg id="svg" version="1.1" width="400" height="200" xmlns="http://www.w3.org/2000/svg" xmlns:xlink="http://www.w3.org/1999/xlink" ><g id="svgg"><path id="path0" d="M120.000 37.960 L 120.000 55.938 70.000 55.938 L 20.000 55.938 20.000 60.000 L 20.000 64.063 70.000 64.063 L 120.000 64.063 120.000 100.000 L 120.000 135.938 70.000 135.938 L 20.000 135.938 20.000 140.000 L 20.000 144.063 70.000 144.063 L 120.000 144.063 120.000 162.041 L 120.000 180.020 165.859 179.909 C 216.183 179.787,212.509 179.915,220.781 177.994 C 250.423 171.110,274.134 146.810,280.267 117.031 C 281.007 113.435,281.875 107.104,281.875 105.296 L 281.875 104.063 330.938 104.063 L 380.000 104.063 380.000 100.000 L 380.000 95.938 330.938 95.938 L 281.875 95.938 281.875 94.704 C 281.875 90.928,280.238 81.878,278.537 76.250 C 270.374 49.241,248.325 28.558,220.714 22.011 C 212.602 20.087,215.636 20.194,165.703 20.083 L 120.000 19.982 120.000 37.960 M212.188 32.280 C 239.911 37.270,259.311 55.052,266.079 81.674 C 275.758 119.746,253.903 157.342,216.850 166.359 C 208.801 168.318,210.578 168.244,169.297 168.357 L 131.563 168.461 131.563 99.999 L 131.563 31.537 170.391 31.641 C 205.368 31.735,209.513 31.799,212.188 32.280 " stroke="none" fill="#000000" fill-rule="evenodd"></path></g></svg>
