<?xml version="1.0" encoding="UTF-8"?>
<svg xmlns="http://www.w3.org/2000/svg" xmlns:xlink="http://www.w3.org/1999/xlink" width="100pt" height="50pt" viewBox="0 0 100 50" version="1.1">
<g id="surface1">
<path style=" stroke:none;fill-rule:nonzero;fill:rgb(0%,0%,0%);fill-opacity:1;" d="M 48.789062 3.015625 C 43.726562 3.523438 39.328125 5.460938 35.664062 8.804688 C 31.984375 12.164062 29.546875 16.734375 28.742188 21.796875 C 28.578125 22.789062 28.5625 23.203125 28.5625 25.117188 C 28.5625 27.007812 28.585938 27.453125 28.742188 28.4375 C 30.140625 37.296875 36.601562 44.429688 45.203125 46.59375 C 47.28125 47.117188 48.203125 47.226562 50.664062 47.21875 C 52.554688 47.21875 53 47.195312 53.984375 47.039062 C 61.3125 45.882812 67.5 41.289062 70.664062 34.664062 C 71.84375 32.195312 72.484375 29.78125 72.789062 26.679688 L 72.851562 26.054688 L 84.007812 26.03125 L 95.15625 26.015625 L 95.15625 23.984375 L 84.007812 23.96875 L 72.851562 23.945312 L 72.796875 23.515625 C 72.523438 21.4375 72.367188 20.515625 72.132812 19.609375 C 69.914062 11 62.796875 4.570312 53.984375 3.195312 C 53.171875 3.070312 52.484375 3.023438 51.015625 3.007812 C 49.960938 2.992188 48.960938 3 48.789062 3.015625 Z M 53.710938 6.320312 C 56.742188 6.796875 59.625 8.03125 62.1875 9.953125 C 63.21875 10.726562 65.09375 12.609375 65.859375 13.632812 C 67.757812 16.179688 68.984375 19.054688 69.460938 22.070312 C 70.46875 28.5 68.242188 34.867188 63.46875 39.203125 C 60.710938 41.703125 57.5 43.257812 53.710938 43.929688 C 52.421875 44.15625 49.171875 44.171875 47.8125 43.960938 C 40.890625 42.875 35.148438 38.15625 32.742188 31.578125 C 32.359375 30.515625 32.078125 29.445312 31.851562 28.164062 C 31.71875 27.375 31.6875 26.890625 31.6875 25.15625 C 31.679688 23.34375 31.703125 22.960938 31.859375 22.0625 C 32.5 18.328125 34.078125 15.070312 36.578125 12.3125 C 40.914062 7.539062 47.28125 5.3125 53.710938 6.320312 Z M 53.710938 6.320312 "/>
</g>
</svg>
