<svg id="svg" version="1.1" width="400" height="200" xmlns="http://www.w3.org/2000/svg" xmlns:xlink="http://www.w3.org/1999/xlink" ><g id="svgg"><path id="path0" d="M120.000 37.960 L 120.000 55.938 70.000 55.938 L 20.000 55.938 20.000 60.000 L 20.000 64.063 70.000 64.063 L 120.000 64.063 120.000 100.000 L 120.000 135.938 70.000 135.938 L 20.000 135.938 20.000 140.000 L 20.000 144.063 70.000 144.063 L 120.000 144.063 120.000 162.041 L 120.000 180.020 165.859 179.909 C 216.183 179.787,212.509 179.915,220.781 177.994 C 250.603 171.068,274.641 146.261,280.323 116.547 C 281.251 111.694,281.173 111.863,281.970 112.969 C 292.661 127.803,316.452 123.692,321.245 106.183 L 321.783 104.219 350.891 104.139 L 380.000 104.059 380.000 100.000 L 380.000 95.941 350.891 95.861 L 321.783 95.781 321.245 93.817 C 316.452 76.308,292.661 72.197,281.970 87.031 C 281.173 88.137,281.251 88.306,280.323 83.453 C 274.618 53.616,250.899 29.168,220.714 22.011 C 212.602 20.087,215.636 20.194,165.703 20.083 L 120.000 19.982 120.000 37.960 M212.188 32.280 C 239.911 37.270,259.311 55.052,266.079 81.674 C 275.758 119.746,253.903 157.342,216.850 166.359 C 208.801 168.318,210.578 168.244,169.297 168.357 L 131.563 168.461 131.563 99.999 L 131.563 31.537 170.391 31.641 C 205.368 31.735,209.513 31.799,212.188 32.280 M304.306 91.265 C 311.383 94.801,311.570 104.767,304.631 108.610 C 302.385 109.855,297.846 109.964,295.712 108.825 C 286.537 103.929,289.691 90.313,300.000 90.313 C 302.050 90.313,302.678 90.451,304.306 91.265 " stroke="none" fill="#000000" fill-rule="evenodd"></path></g></svg>
