<svg id="svg" version="1.1" width="400" height="200" xmlns="http://www.w3.org/2000/svg" xmlns:xlink="http://www.w3.org/1999/xlink" ><g id="svgg"><path id="path0" d="M96.475 20.391 C 96.641 20.605,98.443 22.814,100.480 25.299 C 107.873 34.319,112.221 41.462,116.849 52.188 L 118.399 55.781 69.200 55.860 L 20.000 55.939 20.000 60.000 L 20.000 64.061 70.679 64.140 L 121.359 64.219 122.402 67.969 C 125.866 80.412,127.359 93.929,126.624 106.172 C 126.064 115.495,124.728 123.674,122.402 132.031 L 121.359 135.781 70.679 135.860 L 20.000 135.939 20.000 140.000 L 20.000 144.061 69.200 144.140 L 118.399 144.219 116.912 147.656 C 112.182 158.587,107.868 165.687,100.480 174.701 C 98.443 177.186,96.637 179.400,96.466 179.621 C 95.923 180.322,179.406 179.997,185.000 179.277 C 214.050 175.537,236.712 165.186,257.593 146.118 C 266.240 138.222,278.720 123.195,283.038 115.479 C 283.361 114.902,283.461 114.942,284.806 116.182 C 296.938 127.364,316.950 121.873,321.245 106.183 L 321.783 104.219 350.891 104.139 L 380.000 104.059 380.000 100.000 L 380.000 95.941 350.891 95.861 L 321.783 95.781 321.245 93.817 C 316.955 78.143,296.938 72.636,284.828 83.798 C 284.056 84.509,283.378 85.036,283.320 84.968 C 283.263 84.899,282.187 83.297,280.929 81.406 C 256.742 45.046,220.865 23.622,178.626 20.315 C 172.303 19.820,96.089 19.890,96.475 20.391 M178.066 32.516 C 218.633 35.423,252.550 58.095,275.164 97.422 L 276.647 100.000 275.156 102.578 C 254.893 137.612,225.189 159.790,190.313 165.926 C 180.888 167.585,180.841 167.587,149.620 167.724 L 120.334 167.853 122.254 164.473 C 144.933 124.545,144.674 75.519,121.566 34.453 L 120.291 32.188 146.884 32.188 C 162.379 32.188,175.392 32.325,178.066 32.516 M304.306 91.265 C 311.383 94.801,311.570 104.767,304.631 108.610 C 302.385 109.855,297.846 109.964,295.712 108.825 C 286.537 103.929,289.691 90.313,300.000 90.313 C 302.050 90.313,302.678 90.451,304.306 91.265 " stroke="none" fill="#000000" fill-rule="evenodd"></path></g></svg>
