<svg id="svg" version="1.1" width="400" height="200" xmlns="http://www.w3.org/2000/svg" xmlns:xlink="http://www.w3.org/1999/xlink" ><g id="svgg"><path id="path0" d="M115.625 53.102 L 115.625 95.938 67.813 95.938 L 20.000 95.938 20.000 100.000 L 20.000 104.063 67.813 104.063 L 115.625 104.063 115.625 146.898 C 115.625 182.776,115.694 189.717,116.048 189.632 C 116.281 189.577,153.174 171.637,198.031 149.766 C 242.889 127.895,279.721 110.000,279.879 110.000 C 280.037 110.000,280.624 110.766,281.184 111.701 C 290.843 127.850,316.273 124.347,321.245 106.183 L 321.783 104.219 350.891 104.139 L 380.000 104.059 380.000 100.000 L 380.000 95.941 350.891 95.861 L 321.783 95.781 321.245 93.817 C 316.273 75.653,290.843 72.150,281.184 88.299 C 280.624 89.234,280.037 90.000,279.879 90.000 C 279.721 90.000,242.889 72.105,198.031 50.234 C 153.174 28.363,116.281 10.423,116.048 10.368 C 115.694 10.283,115.625 17.224,115.625 53.102 M200.703 65.324 C 239.676 84.295,271.563 99.899,271.563 100.000 C 271.563 100.101,239.676 115.705,200.703 134.676 C 161.730 153.646,129.457 169.358,128.984 169.592 L 128.125 170.016 128.125 100.000 L 128.125 29.984 128.984 30.408 C 129.457 30.642,161.730 46.354,200.703 65.324 M304.306 91.265 C 311.383 94.801,311.570 104.767,304.631 108.610 C 302.385 109.855,297.846 109.964,295.712 108.825 C 286.537 103.929,289.691 90.313,300.000 90.313 C 302.050 90.313,302.678 90.451,304.306 91.265 " stroke="none" fill="#000000" fill-rule="evenodd"></path></g></svg>
