<svg id="svg" version="1.1" width="400" height="200" xmlns="http://www.w3.org/2000/svg" xmlns:xlink="http://www.w3.org/1999/xlink" ><g id="svgg"><path id="path0" d="M96.475 20.391 C 96.641 20.605,98.443 22.814,100.480 25.299 C 107.873 34.319,112.221 41.462,116.849 52.188 L 118.399 55.781 69.200 55.860 L 20.000 55.939 20.000 60.000 L 20.000 64.061 70.679 64.140 L 121.359 64.219 122.402 67.969 C 125.866 80.412,127.359 93.929,126.624 106.172 C 126.064 115.495,124.728 123.674,122.402 132.031 L 121.359 135.781 70.679 135.860 L 20.000 135.939 20.000 140.000 L 20.000 144.061 69.200 144.140 L 118.399 144.219 116.912 147.656 C 112.182 158.587,107.868 165.687,100.480 174.701 C 98.443 177.186,96.637 179.400,96.466 179.621 C 95.923 180.322,179.406 179.997,185.000 179.277 C 230.220 173.455,265.454 148.441,289.074 105.391 L 289.803 104.062 334.901 104.063 L 380.000 104.063 380.000 100.000 L 380.000 95.938 334.893 95.938 L 289.787 95.938 288.897 94.297 C 265.199 50.606,225.523 23.987,178.626 20.315 C 172.303 19.820,96.089 19.890,96.475 20.391 M178.066 32.516 C 218.633 35.423,252.550 58.095,275.164 97.422 L 276.647 100.000 275.156 102.578 C 254.893 137.612,225.189 159.790,190.313 165.926 C 180.888 167.585,180.841 167.587,149.620 167.724 L 120.334 167.853 122.254 164.473 C 144.933 124.545,144.674 75.519,121.566 34.453 L 120.291 32.188 146.884 32.188 C 162.379 32.188,175.392 32.325,178.066 32.516 " stroke="none" fill="#000000" fill-rule="evenodd"></path></g></svg>
