<svg id="svg" version="1.1" width="400" height="200" xmlns="http://www.w3.org/2000/svg" xmlns:xlink="http://www.w3.org/1999/xlink" ><g id="svgg"><path id="path0" d="M75.074 22.422 C 76.176 23.754,78.157 26.150,79.476 27.746 C 84.886 34.292,95.313 52.739,95.313 55.765 C 95.313 55.860,78.367 55.938,57.656 55.938 L 20.000 55.938 20.000 60.000 L 20.000 64.063 59.169 64.063 L 98.338 64.063 99.462 68.203 C 105.179 89.270,105.182 110.872,99.468 131.797 L 98.338 135.938 59.169 135.938 L 20.000 135.938 20.000 140.000 L 20.000 144.063 57.656 144.063 C 78.367 144.063,95.313 144.140,95.313 144.235 C 95.313 147.261,84.886 165.708,79.476 172.254 C 78.157 173.850,76.176 176.246,75.074 177.578 L 73.071 180.000 80.717 180.000 L 88.363 180.000 89.375 178.984 C 94.018 174.321,102.593 159.306,106.864 148.359 L 108.541 144.063 113.493 144.063 L 118.446 144.063 118.016 145.078 C 117.779 145.637,117.199 147.008,116.727 148.125 C 112.672 157.726,107.621 165.988,100.480 174.701 C 98.443 177.186,96.637 179.400,96.466 179.621 C 95.923 180.322,179.406 179.997,185.000 179.277 C 214.050 175.537,236.712 165.186,257.593 146.118 C 266.240 138.222,278.720 123.195,283.038 115.479 C 283.361 114.902,283.461 114.942,284.806 116.182 C 296.938 127.364,316.950 121.873,321.245 106.183 L 321.783 104.219 350.891 104.139 L 380.000 104.059 380.000 100.000 L 380.000 95.941 350.891 95.861 L 321.783 95.781 321.245 93.817 C 316.955 78.143,296.938 72.636,284.828 83.798 C 284.056 84.509,283.378 85.036,283.320 84.968 C 283.263 84.899,282.187 83.297,280.929 81.406 C 258.496 47.683,225.753 26.622,187.455 21.280 C 178.649 20.052,175.030 19.968,134.920 20.064 L 96.247 20.156 100.350 25.156 C 108.328 34.877,113.801 44.127,118.147 55.234 L 118.422 55.938 113.493 55.938 L 108.564 55.938 106.908 51.797 C 103.626 43.588,97.503 31.924,93.989 27.188 C 93.287 26.242,91.728 24.238,90.524 22.734 L 88.334 20.000 80.703 20.000 L 73.071 20.000 75.074 22.422 M178.066 32.516 C 218.633 35.423,252.550 58.095,275.164 97.422 L 276.647 100.000 275.156 102.578 C 254.893 137.612,225.189 159.790,190.313 165.926 C 180.888 167.585,180.841 167.587,149.620 167.724 L 120.334 167.853 122.254 164.473 C 144.933 124.545,144.674 75.519,121.566 34.453 L 120.291 32.188 146.884 32.188 C 162.379 32.188,175.392 32.325,178.066 32.516 M122.403 67.969 C 128.243 88.957,128.243 111.043,122.403 132.031 L 121.359 135.781 116.305 135.867 C 113.251 135.919,111.250 135.835,111.250 135.655 C 111.250 135.492,111.602 134.047,112.032 132.444 C 117.429 112.351,117.429 87.649,112.032 67.556 C 111.602 65.953,111.250 64.508,111.250 64.345 C 111.250 64.165,113.251 64.081,116.305 64.133 L 121.359 64.219 122.403 67.969 M304.306 91.265 C 311.383 94.801,311.570 104.767,304.631 108.610 C 302.385 109.855,297.846 109.964,295.712 108.825 C 286.537 103.929,289.691 90.313,300.000 90.313 C 302.050 90.313,302.678 90.451,304.306 91.265 " stroke="none" fill="#000000" fill-rule="evenodd"></path></g></svg>
